HIERARCHY
ROOT Hips
{
	OFFSET 0.000000 0.000000 0.000000
	CHANNELS 6 Xposition Yposition Zposition Zrotation Yrotation Xrotation 
	JOINT LHipJoint
	{
		OFFSET 0.000000 0.000000 0.000000
		CHANNELS 3 Zrotation Yrotation Xrotation
		JOINT LeftUpLeg
		{
			OFFSET 1.363060 -1.794630 0.839290
			CHANNELS 3 Zrotation Yrotation Xrotation
			JOINT LeftLeg
			{
				OFFSET 2.448110 -6.726130 0.000000
				CHANNELS 3 Zrotation Yrotation Xrotation
				JOINT LeftFoot
				{
					OFFSET 2.562200 -7.039590 0.000000
					CHANNELS 3 Zrotation Yrotation Xrotation
					JOINT LeftToeBase
					{
						OFFSET 0.157640 -0.433110 2.322550
						CHANNELS 3 Zrotation Yrotation Xrotation
						End Site
						{
							OFFSET 0.000000 0.000000 0.000000
						}
					}
				}
			}
		}
	}
	JOINT RHipJoint
	{
		OFFSET 0.000000 0.000000 0.000000
		CHANNELS 3 Zrotation Yrotation Xrotation
		JOINT RightUpLeg
		{
			OFFSET -1.305520 -1.794630 0.839290
			CHANNELS 3 Zrotation Yrotation Xrotation
			JOINT RightLeg
			{
				OFFSET -2.542530 -6.985550 0.000000
				CHANNELS 3 Zrotation Yrotation Xrotation
				JOINT RightFoot
				{
					OFFSET -2.568260 -7.056230 0.000000
					CHANNELS 3 Zrotation Yrotation Xrotation
					JOINT RightToeBase
					{
						OFFSET -0.164730 -0.452590 2.363150
						CHANNELS 3 Zrotation Yrotation Xrotation
						End Site
						{
							OFFSET 0.000000 0.000000 0.000000
						}
					}
				}
			}
		}
	}
	JOINT LowerBack
	{
		OFFSET 0.000000 0.000000 0.000000
		CHANNELS 3 Zrotation Yrotation Xrotation
		JOINT Spine
		{
			OFFSET 0.028270 2.035590 -0.193380
			CHANNELS 3 Zrotation Yrotation Xrotation
			JOINT Spine1
			{
				OFFSET 0.056720 2.048850 -0.042750
				CHANNELS 3 Zrotation Yrotation Xrotation
				JOINT Neck
				{
					OFFSET 0.000000 0.000000 0.000000
					CHANNELS 3 Zrotation Yrotation Xrotation
					JOINT Neck1
					{
						OFFSET -0.054170 1.746240 0.172020
						CHANNELS 3 Zrotation Yrotation Xrotation
						JOINT Head
						{
							OFFSET 0.104070 1.761360 -0.123970
							CHANNELS 3 Zrotation Yrotation Xrotation
							End Site
							{
								OFFSET 0.000000 0.000000 0.000000
							}
						}
					}
				}
				JOINT LeftShoulder
				{
					OFFSET 0.000000 0.000000 0.000000
					CHANNELS 3 Zrotation Yrotation Xrotation
					JOINT LeftArm
					{
						OFFSET 3.362410 1.200890 -0.311210
						CHANNELS 3 Zrotation Yrotation Xrotation
						JOINT LeftForeArm
						{
							OFFSET 4.983000 -0.000000 -0.000000
							CHANNELS 3 Zrotation Yrotation Xrotation
							JOINT LeftHand
							{
								OFFSET 3.483560 -0.000000 -0.000000
								CHANNELS 3 Zrotation Yrotation Xrotation
								JOINT LeftFingerBase
								{
									OFFSET 0.000000 0.000000 0.000000
									CHANNELS 3 Zrotation Yrotation Xrotation
									JOINT LeftHandIndex1
									{
										OFFSET 0.715260 -0.000000 -0.000000
										CHANNELS 3 Zrotation Yrotation Xrotation
										End Site
										{
											OFFSET 0.000000 0.000000 0.000000
										}
									}
								}
								JOINT LThumb
								{
									OFFSET 0.000000 0.000000 0.000000
									CHANNELS 3 Zrotation Yrotation Xrotation
									End Site
									{
										OFFSET 0.000000 0.000000 0.000000
									}
								}
							}
						}
					}
				}
				JOINT RightShoulder
				{
					OFFSET 0.000000 0.000000 0.000000
					CHANNELS 3 Zrotation Yrotation Xrotation
					JOINT RightArm
					{
						OFFSET -3.136600 1.374050 -0.404650
						CHANNELS 3 Zrotation Yrotation Xrotation
						JOINT RightForeArm
						{
							OFFSET -5.241900 -0.000000 -0.000000
							CHANNELS 3 Zrotation Yrotation Xrotation
							JOINT RightHand
							{
								OFFSET -3.444170 -0.000000 -0.000000
								CHANNELS 3 Zrotation Yrotation Xrotation
								JOINT RightFingerBase
								{
									OFFSET 0.000000 0.000000 0.000000
									CHANNELS 3 Zrotation Yrotation Xrotation
									JOINT RightHandIndex1
									{
										OFFSET -0.622530 -0.000000 -0.000000
										CHANNELS 3 Zrotation Yrotation Xrotation
										End Site
										{
											OFFSET 0.000000 0.000000 0.000000
										}
									}
								}
								JOINT RThumb
								{
									OFFSET 0.000000 0.000000 0.000000
									CHANNELS 3 Zrotation Yrotation Xrotation
									End Site
									{
										OFFSET 0.000000 0.000000 0.000000
									}
								}
							}
						}
					}
				}
			}
		}
	}
}
MOTION
Frames: 12
Frame Time: 0.008333
-5.958299 15.906430 0.686521 -112.288987 88.158653 -91.069252 -8.946630 -1.803578 -2.459286 -19.525610 3.131932 -60.632835 -1.632903 3.172201 48.057201 3.240864 13.798598 -14.892431 -1.275200 0.000000 -3.254700 10.336602 -1.991176 -6.142447 10.147367 -14.600538 -24.617130 1.479442 -4.686156 57.647005 0.031924 4.210320 -14.131041 -0.334400 0.000000 -69.012000 -1.539783 0.480102 10.774556 -1.136870 0.783793 -1.096985 -5.705000 0.778507 -0.718573 7.391946 -5.171981 -6.759062 -2.260818 -0.159987 -0.111571 0.000000 0.000000 0.000000 -0.274257 12.765610 3.418109 -74.225631 22.076470 9.781370 -1.786773 -52.368400 -0.003143 0.108226 5.091043 0.006831 -0.040715 -0.005263 0.000000 0.000000 0.000000 0.000000 0.000000 0.000000 0.000000 6.302951 0.957189 -0.709184 66.907196 11.957436 11.577120 0.082863 85.826023 -0.015987 -2.761787 2.556098 -0.071054 0.029711 -0.382340 -0.000000 0.000000 0.000000 0.000000 0.000000 0.000000 0.000000 
-5.836791 15.893779 0.666174 -113.586733 88.068991 -92.563074 -8.981869 -1.821815 -2.495576 -19.367906 3.114429 -60.332920 -1.571336 3.214806 49.037923 3.311110 14.016270 -15.843355 -1.568100 -0.000000 -3.439300 10.440580 -2.011662 -6.183125 9.789091 -14.887025 -24.792687 1.246262 -4.807055 58.915180 0.111714 4.463545 -12.392778 -0.297700 -0.000000 -70.706100 -1.716687 0.469368 10.835794 -1.181759 0.770148 -1.094502 -5.736836 0.765337 -0.756504 7.402119 -5.103314 -6.743289 -2.269999 -0.160682 -0.108002 0.000000 0.000000 0.000000 -0.254730 12.614975 3.435975 -74.226369 21.641672 9.559738 -1.801853 -52.025956 -0.003308 0.320228 5.103861 0.016441 -0.042819 -0.003551 0.000000 0.000000 0.000000 0.000000 0.000000 0.000000 0.000000 6.324367 1.025055 -0.704141 67.340228 11.771172 11.720673 0.092168 85.479988 -0.015658 -2.704755 2.568586 -0.069858 0.027449 -0.381249 -0.000000 0.000000 0.000000 0.000000 0.000000 0.000000 0.000000 
-5.716916 15.883047 0.644842 -114.460785 87.964646 -93.633075 -9.016668 -1.841708 -2.528388 -19.183763 3.079182 -59.946376 -1.517588 3.239520 49.874724 3.390102 14.267919 -16.817072 -1.877900 0.000000 -3.700100 10.539278 -2.023667 -6.224428 9.453557 -15.136329 -24.984151 1.009739 -4.922167 60.176083 0.170776 4.671297 -10.624679 -0.229000 0.000000 -72.025500 -1.867140 0.458961 10.900111 -1.220171 0.757018 -1.092565 -5.765842 0.752501 -0.801306 7.390375 -5.017785 -6.713842 -2.279589 -0.161589 -0.100742 0.000000 0.000000 0.000000 -0.267582 12.438377 3.447118 -74.208070 21.223800 9.337112 -1.812120 -51.784569 -0.003468 0.532403 5.109263 0.026052 -0.044751 -0.001558 0.000000 0.000000 0.000000 0.000000 0.000000 0.000000 0.000000 6.327274 1.104783 -0.695946 67.781597 11.581812 11.855285 0.103865 85.050650 -0.015399 -2.663360 2.585566 -0.069062 0.025549 -0.379765 -0.000000 0.000000 0.000000 0.000000 0.000000 0.000000 0.000000 
-5.598669 15.874053 0.622121 -114.770254 87.830957 -94.137914 -9.053051 -1.867541 -2.559026 -18.954208 3.036973 -59.492409 -1.467865 3.249788 50.594380 3.474085 14.544872 -17.782303 -2.196700 0.000000 -3.916300 10.629891 -2.031005 -6.263091 9.165891 -15.329088 -25.179829 0.774674 -5.029716 61.414352 0.207948 4.823069 -8.861764 -0.133200 0.000000 -72.959200 -1.977660 0.450649 10.965705 -1.248895 0.746391 -1.087820 -5.790378 0.742127 -0.837822 7.358851 -4.926130 -6.682906 -2.289422 -0.162508 -0.093333 0.000000 0.000000 0.000000 -0.285365 12.299410 3.451575 -74.181150 20.746303 9.167051 -1.820480 -51.584530 -0.003633 0.740854 5.097667 0.035265 -0.046707 0.000839 0.000000 0.000000 0.000000 0.000000 0.000000 0.000000 0.000000 6.316714 1.186596 -0.689688 68.216130 11.407727 11.988373 0.117839 84.541220 -0.015166 -2.631183 2.605579 -0.068666 0.023930 -0.377751 0.000000 0.000000 0.000000 0.000000 0.000000 0.000000 0.000000 
-5.481862 15.866773 0.598386 -114.594545 87.677851 -94.158679 -9.089270 -1.896041 -2.588069 -18.691154 2.988899 -58.980473 -1.420371 3.248581 51.215364 3.560366 14.844190 -18.707200 -2.516200 0.000000 -4.017500 10.715836 -2.031896 -6.298419 8.914177 -15.473595 -25.381314 0.542200 -5.129636 62.627955 0.225583 4.927740 -7.098068 -0.015300 -0.000000 -73.560500 -2.058373 0.444067 11.031026 -1.270491 0.737997 -1.082839 -5.812751 0.733860 -0.874296 7.309566 -4.823480 -6.642237 -2.300497 -0.163649 -0.083264 0.000000 0.000000 0.000000 -0.327266 12.160319 3.448065 -74.135191 20.264336 9.008939 -1.825237 -51.474439 -0.003795 0.937161 5.076422 0.043978 -0.048505 0.003485 0.000000 0.000000 0.000000 0.000000 0.000000 0.000000 0.000000 6.298001 1.274725 -0.681168 68.643597 11.241259 12.122741 0.134288 83.948734 -0.014921 -2.602148 2.635626 -0.068469 0.022569 -0.375302 -0.000000 0.000000 0.000000 0.000000 0.000000 0.000000 0.000000 
-5.366435 15.861197 0.573806 -114.050844 87.507896 -93.812604 -9.126095 -1.926356 -2.616185 -18.399768 2.939832 -58.427198 -1.373301 3.239630 51.762492 3.645836 15.158318 -19.570631 -2.829100 0.000000 -3.955500 10.796875 -2.026872 -6.329289 8.699347 -15.572192 -25.588341 0.313481 -5.221383 63.811760 0.224908 4.986504 -5.325453 0.120700 0.000000 -73.869600 -2.113957 0.439411 11.094555 -1.286098 0.731987 -1.077734 -5.833623 0.727861 -0.909477 7.246034 -4.712862 -6.592702 -2.313289 -0.165037 -0.070726 0.000000 0.000000 0.000000 -0.390314 12.021975 3.436453 -74.070435 19.777836 8.856608 -1.826791 -51.450968 -0.003955 1.117527 5.046188 0.051692 -0.050145 0.006344 0.000000 0.000000 0.000000 0.000000 0.000000 0.000000 0.000000 6.277726 1.366046 -0.669666 69.058931 11.084333 12.261782 0.153385 83.272844 -0.014628 -2.570693 2.679685 -0.068572 0.021425 -0.372441 -0.000000 0.000000 0.000000 0.000000 0.000000 0.000000 0.000000 
-5.252351 15.857271 0.548559 -113.278717 87.321703 -93.237182 -9.164738 -1.958087 -2.644011 -18.084966 2.895240 -57.851681 -1.325604 3.226655 52.260247 3.727346 15.476239 -20.361248 -3.129800 -0.000001 -3.716500 10.871633 -2.016934 -6.354293 8.526018 -15.623812 -25.802117 0.090253 -5.304385 64.961702 0.206637 4.995892 -3.548950 0.269400 -0.000000 -73.888700 -2.148797 0.436990 11.154687 -1.296548 0.728564 -1.070989 -5.852445 0.724442 -0.935778 7.172968 -4.599617 -6.540862 -2.327836 -0.166570 -0.057647 0.000000 0.000000 0.000000 -0.454659 11.914261 3.417656 -73.994234 19.243490 8.732661 -1.827282 -51.474099 -0.004119 1.281105 5.003730 0.058405 -0.051772 0.009478 0.000000 0.000000 0.000000 0.000000 0.000000 0.000000 0.000000 6.262372 1.455551 -0.657515 69.456193 10.941976 12.404818 0.175165 82.517562 -0.014258 -2.531112 2.737689 -0.068675 0.020410 -0.369137 0.000000 0.000000 0.000000 0.000000 0.000000 0.000000 0.000000 
-5.139470 15.855087 0.523010 -112.483747 87.127343 -92.637003 -9.205683 -1.988723 -2.671257 -17.761093 2.855853 -57.265204 -1.277550 3.212170 52.722981 3.802799 15.789178 -21.074382 -3.414100 0.000000 -3.332100 10.939919 -2.001544 -6.373403 8.386348 -15.639114 -26.027258 -0.127159 -5.378602 66.077104 0.171804 4.957627 -1.751240 0.427300 -0.000000 -73.646700 -2.173232 0.436220 11.209693 -1.304361 0.726939 -1.064236 -5.870580 0.722760 -0.958022 7.093957 -4.483883 -6.483064 -2.344639 -0.168346 -0.042880 0.000000 0.000000 0.000000 -0.525058 11.809377 3.391829 -73.905501 18.690892 8.606892 -1.826097 -51.558777 -0.004283 1.425571 4.953666 0.064120 -0.053310 0.012807 0.000000 0.000000 0.000000 0.000000 0.000000 0.000000 0.000000 6.257265 1.542581 -0.641601 69.835497 10.806703 12.549707 0.199941 81.682560 -0.013797 -2.480999 2.813064 -0.068877 0.019527 -0.365460 0.000000 0.000000 0.000000 0.000000 0.000000 0.000000 0.000000 
-5.027815 15.854636 0.497468 -111.829799 86.930044 -92.173853 -9.249302 -2.016800 -2.697943 -17.439464 2.822718 -56.677831 -1.230029 3.198017 53.161106 3.870553 16.086913 -21.714769 -3.680000 -0.000000 -2.858000 11.001040 -1.980620 -6.387018 8.277076 -15.626371 -26.268642 -0.337831 -5.444214 67.158002 0.120791 4.868833 0.075427 0.589400 -0.000000 -73.144700 -2.195201 0.436330 11.259146 -1.311157 0.726169 -1.056523 -5.887569 0.721963 -0.972106 7.013349 -4.367945 -6.423603 -2.363614 -0.170287 -0.027719 0.000000 0.000000 0.000000 -0.585502 11.723055 3.360399 -73.810633 18.091550 8.491583 -1.824861 -51.672202 -0.004456 1.554892 4.893454 0.068936 -0.054894 0.016389 0.000000 0.000000 0.000000 0.000000 0.000000 0.000000 0.000000 6.266866 1.624823 -0.623286 70.195813 10.676723 12.690601 0.227780 80.772047 -0.013235 -2.417429 2.903735 -0.068979 0.018703 -0.361388 0.000000 0.000000 0.000000 0.000000 0.000000 0.000000 0.000000 
-4.917254 15.856001 0.472293 -111.503523 86.739069 -92.033464 -9.295656 -2.039834 -2.722955 -17.135843 2.791824 -56.091662 -1.184744 3.184656 53.575292 3.930080 16.361732 -22.293201 -3.928100 -0.000001 -2.352100 11.054749 -1.953238 -6.396835 8.186264 -15.602836 -26.532075 -0.540992 -5.501804 68.205531 0.054024 4.730737 1.947477 0.751900 0.000000 -72.383900 -2.224531 0.435487 11.302445 -1.319240 0.724203 -1.049690 -5.904256 0.719934 -0.985091 6.932685 -4.255136 -6.357820 -2.384548 -0.172456 -0.010699 0.000000 0.000000 0.000000 -0.646779 11.613485 3.323273 -73.706964 17.491225 8.346058 -1.822016 -51.841397 -0.004631 1.669686 4.830195 0.072852 -0.056405 0.020124 0.000000 0.000000 0.000000 0.000000 0.000000 0.000000 0.000000 6.291603 1.697456 -0.598319 70.540638 10.547163 12.830598 0.259246 79.780728 -0.012606 -2.346444 3.014203 -0.069080 0.018096 -0.357021 0.000000 0.000000 0.000000 0.000000 0.000000 0.000000 0.000000 
-4.807833 15.859120 0.447568 -111.567593 86.554504 -92.276339 -9.345033 -2.057761 -2.746049 -16.854588 2.764585 -55.510116 -1.143304 3.172175 53.964343 3.981073 16.605089 -22.825604 -4.160000 0.000000 -1.881801 11.099823 -1.920133 -6.403198 8.115476 -15.571806 -26.820846 -0.734708 -5.551860 69.220566 -0.028414 4.534105 3.851338 0.906201 -0.000000 -71.339500 -2.262618 0.433461 11.339315 -1.328770 0.720726 -1.042613 -5.919773 0.716439 -0.992389 6.854447 -4.145795 -6.291018 -2.407129 -0.174744 0.006586 0.000000 0.000000 0.000000 -0.690129 11.502327 3.282343 -73.603773 16.853275 8.191544 -1.819411 -52.023767 -0.004819 1.776590 4.758286 0.076169 -0.058005 0.024110 0.000000 0.000000 0.000000 0.000000 0.000000 0.000000 0.000000 6.332091 1.760972 -0.568901 70.869121 10.412256 12.957000 0.294128 78.718069 -0.011903 -2.265353 3.135460 -0.068981 0.017596 -0.352263 0.000000 0.000000 0.000000 0.000000 0.000000 0.000000 0.000000 
-4.699525 15.863938 0.423396 -112.095052 86.379910 -92.974972 -9.397085 -2.069460 -2.766351 -16.603304 2.738154 -54.929747 -1.107620 3.159718 54.319966 4.024127 16.812257 -23.328720 -4.378900 0.000000 -1.496100 11.136045 -1.880964 -6.408101 8.057987 -15.545488 -27.138782 -0.917312 -5.595454 70.205457 -0.125744 4.274732 5.776492 1.043300 -0.000000 -70.006100 -2.313044 0.429010 11.370375 -1.340415 0.714449 -1.035436 -5.933685 0.710205 -0.995317 6.779069 -4.041209 -6.223750 -2.430764 -0.177102 0.024001 0.000000 0.000000 0.000000 -0.714509 11.382233 3.238396 -73.502709 16.183353 8.022739 -1.816966 -52.215143 -0.005022 1.880780 4.678530 0.079189 -0.059719 0.028349 0.000000 0.000000 0.000000 0.000000 0.000000 0.000000 0.000000 6.385596 1.813839 -0.534421 71.184234 10.267801 13.066815 0.332498 77.586221 -0.011152 -2.178204 3.263819 -0.068682 0.017256 -0.347103 0.000000 0.000000 0.000000 0.000000 0.000000 0.000000 0.000000 
